<mxfile host="app.diagrams.net" modified="2023-09-16T07:42:38.900Z" agent="Mozilla/5.0 (Windows NT 10.0; Win64; x64) AppleWebKit/537.36 (KHTML, like Gecko) Chrome/116.0.0.0 Safari/537.36" etag="3WtYSH_65jaDyJjmVLYV" version="21.7.5" type="google">
  <diagram name="Page-1" id="ZMOEzhW6R_9YKm48PKEO">
    <mxGraphModel grid="1" page="1" gridSize="10" guides="1" tooltips="1" connect="1" arrows="1" fold="1" pageScale="1" pageWidth="827" pageHeight="1169" math="0" shadow="0">
      <root>
        <mxCell id="0" />
        <mxCell id="1" parent="0" />
        <mxCell id="nbZtBqGLQZVI1PYOq2Qs-1" value="&lt;b&gt;Shared Space Finder&lt;/b&gt;" style="ellipse;whiteSpace=wrap;html=1;aspect=fixed;fillColor=#dae8fc;strokeColor=#6c8ebf;" vertex="1" parent="1">
          <mxGeometry x="490" y="705" width="150" height="150" as="geometry" />
        </mxCell>
        <mxCell id="nbZtBqGLQZVI1PYOq2Qs-5" value="&lt;b style=&quot;border-color: var(--border-color);&quot;&gt;Owner / Agent / User&amp;nbsp;&lt;/b&gt;" style="rounded=1;whiteSpace=wrap;html=1;fillColor=#ffe6cc;strokeColor=#d79b00;" vertex="1" parent="1">
          <mxGeometry x="960" y="750" width="120" height="60" as="geometry" />
        </mxCell>
        <mxCell id="nbZtBqGLQZVI1PYOq2Qs-9" style="edgeStyle=orthogonalEdgeStyle;rounded=0;orthogonalLoop=1;jettySize=auto;html=1;entryX=0.5;entryY=0;entryDx=0;entryDy=0;exitX=0.5;exitY=1;exitDx=0;exitDy=0;" edge="1" parent="1" source="nbZtBqGLQZVI1PYOq2Qs-6" target="nbZtBqGLQZVI1PYOq2Qs-7">
          <mxGeometry relative="1" as="geometry" />
        </mxCell>
        <mxCell id="nbZtBqGLQZVI1PYOq2Qs-10" style="edgeStyle=orthogonalEdgeStyle;rounded=0;orthogonalLoop=1;jettySize=auto;html=1;entryX=0.5;entryY=0;entryDx=0;entryDy=0;exitX=0.5;exitY=1;exitDx=0;exitDy=0;" edge="1" parent="1" source="nbZtBqGLQZVI1PYOq2Qs-6" target="nbZtBqGLQZVI1PYOq2Qs-8">
          <mxGeometry relative="1" as="geometry" />
        </mxCell>
        <mxCell id="nbZtBqGLQZVI1PYOq2Qs-6" value="&lt;b style=&quot;border-color: var(--border-color);&quot;&gt;Shared Office Finder System&lt;/b&gt;" style="rounded=0;whiteSpace=wrap;html=1;" vertex="1" parent="1">
          <mxGeometry x="370" y="-500" width="190" height="60" as="geometry" />
        </mxCell>
        <mxCell id="nbZtBqGLQZVI1PYOq2Qs-34" style="edgeStyle=orthogonalEdgeStyle;rounded=0;orthogonalLoop=1;jettySize=auto;html=1;entryX=0;entryY=0.5;entryDx=0;entryDy=0;exitX=0;exitY=0.5;exitDx=0;exitDy=0;" edge="1" parent="1" source="nbZtBqGLQZVI1PYOq2Qs-7" target="nbZtBqGLQZVI1PYOq2Qs-11">
          <mxGeometry relative="1" as="geometry" />
        </mxCell>
        <mxCell id="nbZtBqGLQZVI1PYOq2Qs-35" style="edgeStyle=orthogonalEdgeStyle;rounded=0;orthogonalLoop=1;jettySize=auto;html=1;entryX=0;entryY=0.5;entryDx=0;entryDy=0;exitX=0;exitY=0.5;exitDx=0;exitDy=0;" edge="1" parent="1" source="nbZtBqGLQZVI1PYOq2Qs-7" target="nbZtBqGLQZVI1PYOq2Qs-12">
          <mxGeometry relative="1" as="geometry" />
        </mxCell>
        <mxCell id="nbZtBqGLQZVI1PYOq2Qs-36" style="edgeStyle=orthogonalEdgeStyle;rounded=0;orthogonalLoop=1;jettySize=auto;html=1;entryX=0;entryY=0.5;entryDx=0;entryDy=0;exitX=0;exitY=0.5;exitDx=0;exitDy=0;" edge="1" parent="1" source="nbZtBqGLQZVI1PYOq2Qs-7" target="nbZtBqGLQZVI1PYOq2Qs-13">
          <mxGeometry relative="1" as="geometry" />
        </mxCell>
        <mxCell id="nbZtBqGLQZVI1PYOq2Qs-37" style="edgeStyle=orthogonalEdgeStyle;rounded=0;orthogonalLoop=1;jettySize=auto;html=1;entryX=0;entryY=0.5;entryDx=0;entryDy=0;exitX=0;exitY=0.5;exitDx=0;exitDy=0;" edge="1" parent="1" source="nbZtBqGLQZVI1PYOq2Qs-7" target="nbZtBqGLQZVI1PYOq2Qs-14">
          <mxGeometry relative="1" as="geometry" />
        </mxCell>
        <mxCell id="nbZtBqGLQZVI1PYOq2Qs-38" style="edgeStyle=orthogonalEdgeStyle;rounded=0;orthogonalLoop=1;jettySize=auto;html=1;entryX=0;entryY=0.5;entryDx=0;entryDy=0;exitX=0;exitY=0.5;exitDx=0;exitDy=0;" edge="1" parent="1" source="nbZtBqGLQZVI1PYOq2Qs-7" target="nbZtBqGLQZVI1PYOq2Qs-15">
          <mxGeometry relative="1" as="geometry" />
        </mxCell>
        <mxCell id="nbZtBqGLQZVI1PYOq2Qs-39" style="edgeStyle=orthogonalEdgeStyle;rounded=0;orthogonalLoop=1;jettySize=auto;html=1;entryX=0;entryY=0.5;entryDx=0;entryDy=0;exitX=0;exitY=0.5;exitDx=0;exitDy=0;" edge="1" parent="1" source="nbZtBqGLQZVI1PYOq2Qs-7" target="nbZtBqGLQZVI1PYOq2Qs-16">
          <mxGeometry relative="1" as="geometry" />
        </mxCell>
        <mxCell id="nbZtBqGLQZVI1PYOq2Qs-40" style="edgeStyle=orthogonalEdgeStyle;rounded=0;orthogonalLoop=1;jettySize=auto;html=1;entryX=0;entryY=0.5;entryDx=0;entryDy=0;exitX=0;exitY=0.5;exitDx=0;exitDy=0;" edge="1" parent="1" source="nbZtBqGLQZVI1PYOq2Qs-7" target="nbZtBqGLQZVI1PYOq2Qs-17">
          <mxGeometry relative="1" as="geometry" />
        </mxCell>
        <mxCell id="nbZtBqGLQZVI1PYOq2Qs-7" value="&lt;b style=&quot;border-color: var(--border-color);&quot;&gt;Users&lt;/b&gt;" style="rounded=0;whiteSpace=wrap;html=1;" vertex="1" parent="1">
          <mxGeometry x="130" y="-320" width="120" height="60" as="geometry" />
        </mxCell>
        <mxCell id="nbZtBqGLQZVI1PYOq2Qs-26" style="edgeStyle=orthogonalEdgeStyle;rounded=0;orthogonalLoop=1;jettySize=auto;html=1;entryX=0;entryY=0.5;entryDx=0;entryDy=0;exitX=0;exitY=0.5;exitDx=0;exitDy=0;" edge="1" parent="1" source="nbZtBqGLQZVI1PYOq2Qs-8" target="nbZtBqGLQZVI1PYOq2Qs-18">
          <mxGeometry relative="1" as="geometry" />
        </mxCell>
        <mxCell id="nbZtBqGLQZVI1PYOq2Qs-27" style="edgeStyle=orthogonalEdgeStyle;rounded=0;orthogonalLoop=1;jettySize=auto;html=1;entryX=0;entryY=0.5;entryDx=0;entryDy=0;exitX=0;exitY=0.5;exitDx=0;exitDy=0;" edge="1" parent="1" source="nbZtBqGLQZVI1PYOq2Qs-8" target="nbZtBqGLQZVI1PYOq2Qs-19">
          <mxGeometry relative="1" as="geometry" />
        </mxCell>
        <mxCell id="nbZtBqGLQZVI1PYOq2Qs-28" style="edgeStyle=orthogonalEdgeStyle;rounded=0;orthogonalLoop=1;jettySize=auto;html=1;entryX=0;entryY=0.5;entryDx=0;entryDy=0;exitX=0;exitY=0.5;exitDx=0;exitDy=0;" edge="1" parent="1" source="nbZtBqGLQZVI1PYOq2Qs-8" target="nbZtBqGLQZVI1PYOq2Qs-20">
          <mxGeometry relative="1" as="geometry" />
        </mxCell>
        <mxCell id="nbZtBqGLQZVI1PYOq2Qs-29" style="edgeStyle=orthogonalEdgeStyle;rounded=0;orthogonalLoop=1;jettySize=auto;html=1;entryX=0;entryY=0.5;entryDx=0;entryDy=0;exitX=0;exitY=0.5;exitDx=0;exitDy=0;" edge="1" parent="1" source="nbZtBqGLQZVI1PYOq2Qs-8" target="nbZtBqGLQZVI1PYOq2Qs-21">
          <mxGeometry relative="1" as="geometry" />
        </mxCell>
        <mxCell id="nbZtBqGLQZVI1PYOq2Qs-30" style="edgeStyle=orthogonalEdgeStyle;rounded=0;orthogonalLoop=1;jettySize=auto;html=1;entryX=0;entryY=0.5;entryDx=0;entryDy=0;exitX=0;exitY=0.5;exitDx=0;exitDy=0;" edge="1" parent="1" source="nbZtBqGLQZVI1PYOq2Qs-8" target="nbZtBqGLQZVI1PYOq2Qs-22">
          <mxGeometry relative="1" as="geometry" />
        </mxCell>
        <mxCell id="nbZtBqGLQZVI1PYOq2Qs-31" style="edgeStyle=orthogonalEdgeStyle;rounded=0;orthogonalLoop=1;jettySize=auto;html=1;entryX=0;entryY=0.5;entryDx=0;entryDy=0;exitX=0;exitY=0.5;exitDx=0;exitDy=0;" edge="1" parent="1" source="nbZtBqGLQZVI1PYOq2Qs-8" target="nbZtBqGLQZVI1PYOq2Qs-23">
          <mxGeometry relative="1" as="geometry" />
        </mxCell>
        <mxCell id="nbZtBqGLQZVI1PYOq2Qs-32" style="edgeStyle=orthogonalEdgeStyle;rounded=0;orthogonalLoop=1;jettySize=auto;html=1;entryX=0;entryY=0.5;entryDx=0;entryDy=0;exitX=0;exitY=0.5;exitDx=0;exitDy=0;" edge="1" parent="1" source="nbZtBqGLQZVI1PYOq2Qs-8" target="nbZtBqGLQZVI1PYOq2Qs-24">
          <mxGeometry relative="1" as="geometry" />
        </mxCell>
        <mxCell id="nbZtBqGLQZVI1PYOq2Qs-33" style="edgeStyle=orthogonalEdgeStyle;rounded=0;orthogonalLoop=1;jettySize=auto;html=1;entryX=0;entryY=0.5;entryDx=0;entryDy=0;exitX=0;exitY=0.5;exitDx=0;exitDy=0;" edge="1" parent="1" source="nbZtBqGLQZVI1PYOq2Qs-8" target="nbZtBqGLQZVI1PYOq2Qs-25">
          <mxGeometry relative="1" as="geometry" />
        </mxCell>
        <mxCell id="nbZtBqGLQZVI1PYOq2Qs-8" value="&lt;b style=&quot;border-color: var(--border-color);&quot;&gt;Owner/Agent&lt;/b&gt;" style="rounded=0;whiteSpace=wrap;html=1;" vertex="1" parent="1">
          <mxGeometry x="640" y="-320" width="120" height="60" as="geometry" />
        </mxCell>
        <mxCell id="nbZtBqGLQZVI1PYOq2Qs-11" value="&lt;b&gt;Login&lt;/b&gt;" style="rounded=0;whiteSpace=wrap;html=1;" vertex="1" parent="1">
          <mxGeometry x="170" y="-230" width="120" height="60" as="geometry" />
        </mxCell>
        <mxCell id="nbZtBqGLQZVI1PYOq2Qs-12" value="&lt;b&gt;Profile&lt;/b&gt;" style="rounded=0;whiteSpace=wrap;html=1;" vertex="1" parent="1">
          <mxGeometry x="170" y="-150" width="120" height="60" as="geometry" />
        </mxCell>
        <mxCell id="nbZtBqGLQZVI1PYOq2Qs-13" value="&lt;b&gt;Change Pass.&lt;/b&gt;" style="rounded=0;whiteSpace=wrap;html=1;" vertex="1" parent="1">
          <mxGeometry x="170" y="-60" width="120" height="60" as="geometry" />
        </mxCell>
        <mxCell id="nbZtBqGLQZVI1PYOq2Qs-14" value="&lt;b&gt;&amp;nbsp;Find Office&amp;nbsp;&lt;/b&gt;" style="rounded=0;whiteSpace=wrap;html=1;" vertex="1" parent="1">
          <mxGeometry x="170" y="20" width="120" height="60" as="geometry" />
        </mxCell>
        <mxCell id="nbZtBqGLQZVI1PYOq2Qs-15" value="&lt;div&gt;&lt;b&gt;View Booking&lt;/b&gt;&lt;b style=&quot;background-color: initial;&quot;&gt;&amp;nbsp;History&lt;/b&gt;&lt;/div&gt;" style="rounded=0;whiteSpace=wrap;html=1;" vertex="1" parent="1">
          <mxGeometry x="170" y="100" width="120" height="60" as="geometry" />
        </mxCell>
        <mxCell id="nbZtBqGLQZVI1PYOq2Qs-16" value="&lt;b&gt;Chat&lt;/b&gt;" style="rounded=0;whiteSpace=wrap;html=1;" vertex="1" parent="1">
          <mxGeometry x="170" y="180" width="120" height="60" as="geometry" />
        </mxCell>
        <mxCell id="nbZtBqGLQZVI1PYOq2Qs-17" value="&lt;b&gt;Rate/Review&lt;/b&gt;" style="rounded=0;whiteSpace=wrap;html=1;" vertex="1" parent="1">
          <mxGeometry x="170" y="260" width="120" height="60" as="geometry" />
        </mxCell>
        <mxCell id="nbZtBqGLQZVI1PYOq2Qs-18" value="&lt;b&gt;Login&lt;/b&gt;" style="rounded=0;whiteSpace=wrap;html=1;" vertex="1" parent="1">
          <mxGeometry x="700" y="-230" width="120" height="60" as="geometry" />
        </mxCell>
        <mxCell id="nbZtBqGLQZVI1PYOq2Qs-19" value="&lt;b&gt;Profile&lt;/b&gt;" style="rounded=0;whiteSpace=wrap;html=1;" vertex="1" parent="1">
          <mxGeometry x="700" y="-140" width="120" height="60" as="geometry" />
        </mxCell>
        <mxCell id="nbZtBqGLQZVI1PYOq2Qs-20" value="&lt;b&gt;Change Pass.&lt;/b&gt;" style="rounded=0;whiteSpace=wrap;html=1;" vertex="1" parent="1">
          <mxGeometry x="700" y="-60" width="120" height="60" as="geometry" />
        </mxCell>
        <mxCell id="nbZtBqGLQZVI1PYOq2Qs-21" value="&lt;b&gt;My Office&amp;nbsp;&lt;/b&gt;" style="rounded=0;whiteSpace=wrap;html=1;" vertex="1" parent="1">
          <mxGeometry x="700" y="20" width="120" height="60" as="geometry" />
        </mxCell>
        <mxCell id="nbZtBqGLQZVI1PYOq2Qs-22" value="&lt;b&gt;Slots&lt;/b&gt;" style="rounded=0;whiteSpace=wrap;html=1;" vertex="1" parent="1">
          <mxGeometry x="700" y="100" width="120" height="60" as="geometry" />
        </mxCell>
        <mxCell id="nbZtBqGLQZVI1PYOq2Qs-23" value="&lt;b&gt;Bookings&lt;/b&gt;" style="rounded=0;whiteSpace=wrap;html=1;" vertex="1" parent="1">
          <mxGeometry x="700" y="180" width="120" height="60" as="geometry" />
        </mxCell>
        <mxCell id="nbZtBqGLQZVI1PYOq2Qs-24" value="&lt;b&gt;Chat&lt;/b&gt;" style="rounded=0;whiteSpace=wrap;html=1;" vertex="1" parent="1">
          <mxGeometry x="700" y="270" width="120" height="60" as="geometry" />
        </mxCell>
        <mxCell id="nbZtBqGLQZVI1PYOq2Qs-25" value="&lt;b&gt;Feedback&lt;/b&gt;" style="rounded=0;whiteSpace=wrap;html=1;" vertex="1" parent="1">
          <mxGeometry x="700" y="360" width="120" height="60" as="geometry" />
        </mxCell>
        <mxCell id="nbZtBqGLQZVI1PYOq2Qs-83" value="" style="group" vertex="1" connectable="0" parent="1">
          <mxGeometry x="170" y="940" width="950" height="220" as="geometry" />
        </mxCell>
        <mxCell id="nbZtBqGLQZVI1PYOq2Qs-71" value="" style="rounded=0;whiteSpace=wrap;html=1;" vertex="1" parent="nbZtBqGLQZVI1PYOq2Qs-83">
          <mxGeometry x="28.787878787878793" y="-4.583333333333334" width="834.848484848485" height="187.91666666666669" as="geometry" />
        </mxCell>
        <mxCell id="nbZtBqGLQZVI1PYOq2Qs-72" value="" style="rounded=1;whiteSpace=wrap;html=1;fillColor=#ffe6cc;strokeColor=#d79b00;" vertex="1" parent="nbZtBqGLQZVI1PYOq2Qs-83">
          <mxGeometry x="76.76767676767678" y="48.31750000000001" width="115.15151515151517" height="55.00000000000001" as="geometry" />
        </mxCell>
        <mxCell id="nbZtBqGLQZVI1PYOq2Qs-73" value="" style="ellipse;whiteSpace=wrap;html=1;aspect=fixed;fillColor=#dae8fc;strokeColor=#6c8ebf;" vertex="1" parent="nbZtBqGLQZVI1PYOq2Qs-83">
          <mxGeometry x="407.82828282828285" y="27.500000000000004" width="91.70863858363857" height="91.70863858363857" as="geometry" />
        </mxCell>
        <mxCell id="nbZtBqGLQZVI1PYOq2Qs-75" value="Actor" style="text;html=1;strokeColor=none;fillColor=none;align=center;verticalAlign=middle;whiteSpace=wrap;rounded=0;" vertex="1" parent="nbZtBqGLQZVI1PYOq2Qs-83">
          <mxGeometry x="91.16161616161618" y="119.16666666666666" width="86.36363636363637" height="27.500000000000004" as="geometry" />
        </mxCell>
        <mxCell id="nbZtBqGLQZVI1PYOq2Qs-76" value="System" style="text;html=1;strokeColor=none;fillColor=none;align=center;verticalAlign=middle;whiteSpace=wrap;rounded=0;" vertex="1" parent="nbZtBqGLQZVI1PYOq2Qs-83">
          <mxGeometry x="429.6207070707071" y="137.5" width="57.575757575757585" height="27.500000000000004" as="geometry" />
        </mxCell>
        <mxCell id="OVBJvHx5XvWsbpunJyyz-12" value="" style="endArrow=classic;startArrow=classic;html=1;rounded=0;" edge="1" parent="nbZtBqGLQZVI1PYOq2Qs-83">
          <mxGeometry width="50" height="50" relative="1" as="geometry">
            <mxPoint x="642.9292929292931" y="114.58333333333334" as="sourcePoint" />
            <mxPoint x="690.909090909091" y="68.75" as="targetPoint" />
          </mxGeometry>
        </mxCell>
        <mxCell id="OVBJvHx5XvWsbpunJyyz-13" value="Flow Line" style="text;html=1;strokeColor=none;fillColor=none;align=center;verticalAlign=middle;whiteSpace=wrap;rounded=0;" vertex="1" parent="nbZtBqGLQZVI1PYOq2Qs-83">
          <mxGeometry x="710" y="89" width="60" height="30" as="geometry" />
        </mxCell>
        <mxCell id="hQqgi3BaYDGHLOU8Nd-n-1" value="&lt;b&gt;Admin&lt;/b&gt;" style="rounded=1;whiteSpace=wrap;html=1;fillColor=#ffe6cc;strokeColor=#d79b00;" vertex="1" parent="1">
          <mxGeometry x="200" y="760" width="120" height="60" as="geometry" />
        </mxCell>
        <mxCell id="OVBJvHx5XvWsbpunJyyz-4" value="" style="endArrow=classic;startArrow=classic;html=1;rounded=0;entryX=0.336;entryY=-0.002;entryDx=0;entryDy=0;exitX=0.932;exitY=0.252;exitDx=0;exitDy=0;exitPerimeter=0;entryPerimeter=0;" edge="1" parent="1" source="nbZtBqGLQZVI1PYOq2Qs-1" target="nbZtBqGLQZVI1PYOq2Qs-5">
          <mxGeometry width="50" height="50" relative="1" as="geometry">
            <mxPoint x="631.3499999999999" y="795.0000000000001" as="sourcePoint" />
            <mxPoint x="890" y="734.1" as="targetPoint" />
            <Array as="points">
              <mxPoint x="630" y="670" />
              <mxPoint x="910" y="670" />
              <mxPoint x="1000" y="670" />
            </Array>
          </mxGeometry>
        </mxCell>
        <mxCell id="OVBJvHx5XvWsbpunJyyz-5" value="Allows users to book space and share space" style="edgeLabel;html=1;align=center;verticalAlign=middle;resizable=0;points=[];" vertex="1" connectable="0" parent="OVBJvHx5XvWsbpunJyyz-4">
          <mxGeometry x="0.0037" relative="1" as="geometry">
            <mxPoint as="offset" />
          </mxGeometry>
        </mxCell>
        <mxCell id="OVBJvHx5XvWsbpunJyyz-6" value="" style="endArrow=classic;startArrow=classic;html=1;rounded=0;exitX=0.93;exitY=0.763;exitDx=0;exitDy=0;entryX=0.379;entryY=1.051;entryDx=0;entryDy=0;entryPerimeter=0;exitPerimeter=0;" edge="1" parent="1" source="nbZtBqGLQZVI1PYOq2Qs-1" target="nbZtBqGLQZVI1PYOq2Qs-5">
          <mxGeometry width="50" height="50" relative="1" as="geometry">
            <mxPoint x="640" y="825.5" as="sourcePoint" />
            <mxPoint x="920" y="825" as="targetPoint" />
            <Array as="points">
              <mxPoint x="630" y="860" />
              <mxPoint x="700" y="860" />
              <mxPoint x="820" y="860" />
              <mxPoint x="1005" y="860" />
            </Array>
          </mxGeometry>
        </mxCell>
        <mxCell id="OVBJvHx5XvWsbpunJyyz-7" value="Allows users to interact with each other" style="edgeLabel;html=1;align=center;verticalAlign=middle;resizable=0;points=[];" vertex="1" connectable="0" parent="OVBJvHx5XvWsbpunJyyz-6">
          <mxGeometry x="0.0037" relative="1" as="geometry">
            <mxPoint as="offset" />
          </mxGeometry>
        </mxCell>
        <mxCell id="OVBJvHx5XvWsbpunJyyz-8" value="" style="endArrow=classic;startArrow=classic;html=1;rounded=0;exitX=1;exitY=0.5;exitDx=0;exitDy=0;entryX=0.002;entryY=0.549;entryDx=0;entryDy=0;entryPerimeter=0;" edge="1" parent="1" source="hQqgi3BaYDGHLOU8Nd-n-1" target="nbZtBqGLQZVI1PYOq2Qs-1">
          <mxGeometry width="50" height="50" relative="1" as="geometry">
            <mxPoint x="700" y="920" as="sourcePoint" />
            <mxPoint x="750" y="870" as="targetPoint" />
          </mxGeometry>
        </mxCell>
        <mxCell id="OVBJvHx5XvWsbpunJyyz-9" value="Manage users and posts" style="edgeLabel;html=1;align=center;verticalAlign=middle;resizable=0;points=[];" vertex="1" connectable="0" parent="OVBJvHx5XvWsbpunJyyz-8">
          <mxGeometry x="-0.0713" y="-3" relative="1" as="geometry">
            <mxPoint y="-2" as="offset" />
          </mxGeometry>
        </mxCell>
        <mxCell id="OVBJvHx5XvWsbpunJyyz-15" value="" style="endArrow=classic;startArrow=classic;html=1;rounded=0;exitX=1.001;exitY=0.514;exitDx=0;exitDy=0;exitPerimeter=0;entryX=0;entryY=0.5;entryDx=0;entryDy=0;" edge="1" parent="1" source="nbZtBqGLQZVI1PYOq2Qs-1" target="nbZtBqGLQZVI1PYOq2Qs-5">
          <mxGeometry width="50" height="50" relative="1" as="geometry">
            <mxPoint x="730" y="800" as="sourcePoint" />
            <mxPoint x="780" y="750" as="targetPoint" />
          </mxGeometry>
        </mxCell>
        <mxCell id="OVBJvHx5XvWsbpunJyyz-17" value="Allows users to log in, register, and search for spaces" style="edgeLabel;html=1;align=center;verticalAlign=middle;resizable=0;points=[];" vertex="1" connectable="0" parent="OVBJvHx5XvWsbpunJyyz-15">
          <mxGeometry x="0.0043" y="-2" relative="1" as="geometry">
            <mxPoint as="offset" />
          </mxGeometry>
        </mxCell>
        <mxCell id="MYHYwygQS-LLH2HQ3Vkv-31" value="List items spaces" style="edgeStyle=orthogonalEdgeStyle;rounded=0;orthogonalLoop=1;jettySize=auto;html=1;entryX=0.337;entryY=0;entryDx=0;entryDy=0;dashed=1;entryPerimeter=0;exitX=0.267;exitY=0.073;exitDx=0;exitDy=0;exitPerimeter=0;" edge="1" parent="1" source="MYHYwygQS-LLH2HQ3Vkv-1" target="MYHYwygQS-LLH2HQ3Vkv-29">
          <mxGeometry x="0.0071" relative="1" as="geometry">
            <mxPoint x="2160" y="490" as="sourcePoint" />
            <mxPoint x="1860" y="505" as="targetPoint" />
            <Array as="points">
              <mxPoint x="2200" y="460" />
              <mxPoint x="1780" y="460" />
            </Array>
            <mxPoint as="offset" />
          </mxGeometry>
        </mxCell>
        <mxCell id="MYHYwygQS-LLH2HQ3Vkv-38" value="Payment status" style="edgeStyle=orthogonalEdgeStyle;rounded=0;orthogonalLoop=1;jettySize=auto;html=1;entryX=0.993;entryY=0.168;entryDx=0;entryDy=0;entryPerimeter=0;dashed=1;" edge="1" parent="1" source="MYHYwygQS-LLH2HQ3Vkv-1" target="MYHYwygQS-LLH2HQ3Vkv-29">
          <mxGeometry relative="1" as="geometry">
            <Array as="points">
              <mxPoint x="2090" y="570" />
              <mxPoint x="2090" y="570" />
            </Array>
          </mxGeometry>
        </mxCell>
        <mxCell id="MYHYwygQS-LLH2HQ3Vkv-41" value="Status change" style="edgeStyle=orthogonalEdgeStyle;rounded=0;orthogonalLoop=1;jettySize=auto;html=1;entryX=0.028;entryY=0.006;entryDx=0;entryDy=0;entryPerimeter=0;exitX=0.924;exitY=0.219;exitDx=0;exitDy=0;exitPerimeter=0;dashed=1;" edge="1" parent="1" source="MYHYwygQS-LLH2HQ3Vkv-1" target="MYHYwygQS-LLH2HQ3Vkv-2">
          <mxGeometry relative="1" as="geometry">
            <Array as="points">
              <mxPoint x="2299" y="470" />
              <mxPoint x="2633" y="470" />
            </Array>
          </mxGeometry>
        </mxCell>
        <mxCell id="MYHYwygQS-LLH2HQ3Vkv-47" value="Space booked" style="edgeStyle=orthogonalEdgeStyle;rounded=0;orthogonalLoop=1;jettySize=auto;html=1;entryX=0.027;entryY=0.953;entryDx=0;entryDy=0;entryPerimeter=0;" edge="1" parent="1" source="MYHYwygQS-LLH2HQ3Vkv-1" target="MYHYwygQS-LLH2HQ3Vkv-2">
          <mxGeometry relative="1" as="geometry">
            <Array as="points">
              <mxPoint x="2390" y="612" />
              <mxPoint x="2390" y="612" />
            </Array>
          </mxGeometry>
        </mxCell>
        <mxCell id="MYHYwygQS-LLH2HQ3Vkv-1" value="&lt;b&gt;Shared Space Finder&lt;/b&gt;" style="ellipse;whiteSpace=wrap;html=1;aspect=fixed;fillColor=#dae8fc;strokeColor=#6c8ebf;" vertex="1" parent="1">
          <mxGeometry x="2160" y="505" width="150" height="150" as="geometry" />
        </mxCell>
        <mxCell id="MYHYwygQS-LLH2HQ3Vkv-39" style="edgeStyle=orthogonalEdgeStyle;rounded=0;orthogonalLoop=1;jettySize=auto;html=1;entryX=0.795;entryY=0.091;entryDx=0;entryDy=0;entryPerimeter=0;exitX=0.5;exitY=0;exitDx=0;exitDy=0;" edge="1" parent="1" source="MYHYwygQS-LLH2HQ3Vkv-2" target="MYHYwygQS-LLH2HQ3Vkv-1">
          <mxGeometry relative="1" as="geometry">
            <mxPoint x="2691.8185714285714" y="510" as="sourcePoint" />
            <mxPoint x="2286.7400000000002" y="480.5999999999999" as="targetPoint" />
            <Array as="points">
              <mxPoint x="2690" y="440" />
              <mxPoint x="2279" y="440" />
            </Array>
          </mxGeometry>
        </mxCell>
        <mxCell id="MYHYwygQS-LLH2HQ3Vkv-40" value="Post / Update / Delete space" style="edgeLabel;html=1;align=center;verticalAlign=middle;resizable=0;points=[];" connectable="0" vertex="1" parent="MYHYwygQS-LLH2HQ3Vkv-39">
          <mxGeometry x="0.0962" y="1" relative="1" as="geometry">
            <mxPoint as="offset" />
          </mxGeometry>
        </mxCell>
        <mxCell id="MYHYwygQS-LLH2HQ3Vkv-2" value="&lt;b style=&quot;border-color: var(--border-color);&quot;&gt;Owner / Agent / User&amp;nbsp;&lt;/b&gt;" style="rounded=1;whiteSpace=wrap;html=1;fillColor=#ffe6cc;strokeColor=#d79b00;" vertex="1" parent="1">
          <mxGeometry x="2630" y="555" width="120" height="60" as="geometry" />
        </mxCell>
        <mxCell id="MYHYwygQS-LLH2HQ3Vkv-3" value="" style="group" connectable="0" vertex="1" parent="1">
          <mxGeometry x="1770" y="890" width="970" height="220" as="geometry" />
        </mxCell>
        <mxCell id="MYHYwygQS-LLH2HQ3Vkv-4" value="" style="rounded=0;whiteSpace=wrap;html=1;" vertex="1" parent="MYHYwygQS-LLH2HQ3Vkv-3">
          <mxGeometry x="29.3939393939394" y="-4.583333333333334" width="852.4242424242426" height="187.91666666666669" as="geometry" />
        </mxCell>
        <mxCell id="MYHYwygQS-LLH2HQ3Vkv-5" value="" style="rounded=1;whiteSpace=wrap;html=1;fillColor=#ffe6cc;strokeColor=#d79b00;" vertex="1" parent="MYHYwygQS-LLH2HQ3Vkv-3">
          <mxGeometry x="78.3838383838384" y="48.31750000000001" width="117.5757575757576" height="55.00000000000001" as="geometry" />
        </mxCell>
        <mxCell id="MYHYwygQS-LLH2HQ3Vkv-6" value="" style="ellipse;whiteSpace=wrap;html=1;aspect=fixed;fillColor=#dae8fc;strokeColor=#6c8ebf;" vertex="1" parent="MYHYwygQS-LLH2HQ3Vkv-3">
          <mxGeometry x="416.41414141414145" y="27.500000000000004" width="91.70863858363857" height="91.70863858363857" as="geometry" />
        </mxCell>
        <mxCell id="MYHYwygQS-LLH2HQ3Vkv-7" value="Actor" style="text;html=1;strokeColor=none;fillColor=none;align=center;verticalAlign=middle;whiteSpace=wrap;rounded=0;" vertex="1" parent="MYHYwygQS-LLH2HQ3Vkv-3">
          <mxGeometry x="93.08080808080811" y="119.16666666666666" width="88.1818181818182" height="27.500000000000004" as="geometry" />
        </mxCell>
        <mxCell id="MYHYwygQS-LLH2HQ3Vkv-8" value="System" style="text;html=1;strokeColor=none;fillColor=none;align=center;verticalAlign=middle;whiteSpace=wrap;rounded=0;" vertex="1" parent="MYHYwygQS-LLH2HQ3Vkv-3">
          <mxGeometry x="438.66535353535363" y="137.5" width="58.7878787878788" height="27.500000000000004" as="geometry" />
        </mxCell>
        <mxCell id="MYHYwygQS-LLH2HQ3Vkv-9" value="" style="endArrow=classic;startArrow=classic;html=1;rounded=0;" edge="1" parent="MYHYwygQS-LLH2HQ3Vkv-3">
          <mxGeometry width="50" height="50" relative="1" as="geometry">
            <mxPoint x="656.4646464646466" y="73.33333333333334" as="sourcePoint" />
            <mxPoint x="705.4545454545456" y="27.5" as="targetPoint" />
            <Array as="points" />
          </mxGeometry>
        </mxCell>
        <mxCell id="MYHYwygQS-LLH2HQ3Vkv-10" value="Flow Line" style="text;html=1;strokeColor=none;fillColor=none;align=center;verticalAlign=middle;whiteSpace=wrap;rounded=0;" vertex="1" parent="MYHYwygQS-LLH2HQ3Vkv-3">
          <mxGeometry x="729.9973684210527" y="18.32" width="61.26315789473685" height="30" as="geometry" />
        </mxCell>
        <mxCell id="mm7FIC1pRYcUXqzIRQII-3" value="" style="endArrow=classic;html=1;rounded=0;" edge="1" parent="MYHYwygQS-LLH2HQ3Vkv-3">
          <mxGeometry width="50" height="50" relative="1" as="geometry">
            <mxPoint x="671" y="119.21000000000001" as="sourcePoint" />
            <mxPoint x="721" y="69.21000000000001" as="targetPoint" />
          </mxGeometry>
        </mxCell>
        <mxCell id="mm7FIC1pRYcUXqzIRQII-4" value="Request" style="text;html=1;strokeColor=none;fillColor=none;align=center;verticalAlign=middle;whiteSpace=wrap;rounded=0;" vertex="1" parent="MYHYwygQS-LLH2HQ3Vkv-3">
          <mxGeometry x="729.9973684210527" y="58.34999999999994" width="61.26315789473685" height="30" as="geometry" />
        </mxCell>
        <mxCell id="mm7FIC1pRYcUXqzIRQII-5" value="" style="endArrow=classic;html=1;rounded=0;dashed=1;" edge="1" parent="MYHYwygQS-LLH2HQ3Vkv-3">
          <mxGeometry width="50" height="50" relative="1" as="geometry">
            <mxPoint x="681" y="165" as="sourcePoint" />
            <mxPoint x="731" y="115" as="targetPoint" />
          </mxGeometry>
        </mxCell>
        <mxCell id="mm7FIC1pRYcUXqzIRQII-6" value="Response" style="text;html=1;strokeColor=none;fillColor=none;align=center;verticalAlign=middle;whiteSpace=wrap;rounded=0;" vertex="1" parent="MYHYwygQS-LLH2HQ3Vkv-3">
          <mxGeometry x="739.9973684210527" y="104.13999999999987" width="61.26315789473685" height="30" as="geometry" />
        </mxCell>
        <mxCell id="MYHYwygQS-LLH2HQ3Vkv-11" value="&lt;b&gt;Admin&lt;/b&gt;" style="rounded=1;whiteSpace=wrap;html=1;fillColor=#ffe6cc;strokeColor=#d79b00;" vertex="1" parent="1">
          <mxGeometry x="2170" y="770" width="120" height="60" as="geometry" />
        </mxCell>
        <mxCell id="MYHYwygQS-LLH2HQ3Vkv-16" value="" style="endArrow=classic;startArrow=classic;html=1;rounded=0;exitX=0.5;exitY=0;exitDx=0;exitDy=0;entryX=0.464;entryY=1.001;entryDx=0;entryDy=0;entryPerimeter=0;" edge="1" parent="1" source="MYHYwygQS-LLH2HQ3Vkv-11" target="MYHYwygQS-LLH2HQ3Vkv-1">
          <mxGeometry width="50" height="50" relative="1" as="geometry">
            <mxPoint x="2370" y="720" as="sourcePoint" />
            <mxPoint x="2420" y="670" as="targetPoint" />
            <Array as="points" />
          </mxGeometry>
        </mxCell>
        <mxCell id="MYHYwygQS-LLH2HQ3Vkv-17" value="Manage accounts and posts" style="edgeLabel;html=1;align=center;verticalAlign=middle;resizable=0;points=[];" connectable="0" vertex="1" parent="MYHYwygQS-LLH2HQ3Vkv-16">
          <mxGeometry x="-0.0713" y="-3" relative="1" as="geometry">
            <mxPoint y="-2" as="offset" />
          </mxGeometry>
        </mxCell>
        <mxCell id="MYHYwygQS-LLH2HQ3Vkv-18" value="" style="endArrow=classic;startArrow=classic;html=1;rounded=0;exitX=1.001;exitY=0.514;exitDx=0;exitDy=0;exitPerimeter=0;entryX=0;entryY=0.5;entryDx=0;entryDy=0;" edge="1" parent="1" source="MYHYwygQS-LLH2HQ3Vkv-1" target="MYHYwygQS-LLH2HQ3Vkv-2">
          <mxGeometry width="50" height="50" relative="1" as="geometry">
            <mxPoint x="2400" y="600" as="sourcePoint" />
            <mxPoint x="2450" y="550" as="targetPoint" />
            <Array as="points" />
          </mxGeometry>
        </mxCell>
        <mxCell id="MYHYwygQS-LLH2HQ3Vkv-19" value="Chat (message)" style="edgeLabel;html=1;align=center;verticalAlign=middle;resizable=0;points=[];" connectable="0" vertex="1" parent="MYHYwygQS-LLH2HQ3Vkv-18">
          <mxGeometry x="0.0043" y="-2" relative="1" as="geometry">
            <mxPoint as="offset" />
          </mxGeometry>
        </mxCell>
        <mxCell id="MYHYwygQS-LLH2HQ3Vkv-32" value="Payment&amp;nbsp;" style="edgeStyle=orthogonalEdgeStyle;rounded=0;orthogonalLoop=1;jettySize=auto;html=1;entryX=0.003;entryY=0.567;entryDx=0;entryDy=0;entryPerimeter=0;" edge="1" parent="1" source="MYHYwygQS-LLH2HQ3Vkv-29" target="MYHYwygQS-LLH2HQ3Vkv-1">
          <mxGeometry relative="1" as="geometry" />
        </mxCell>
        <mxCell id="MYHYwygQS-LLH2HQ3Vkv-33" value="Rate Owner" style="edgeStyle=orthogonalEdgeStyle;rounded=0;orthogonalLoop=1;jettySize=auto;html=1;exitX=0.75;exitY=1;exitDx=0;exitDy=0;entryX=0.113;entryY=0.82;entryDx=0;entryDy=0;entryPerimeter=0;" edge="1" parent="1" target="MYHYwygQS-LLH2HQ3Vkv-1">
          <mxGeometry relative="1" as="geometry">
            <Array as="points">
              <mxPoint x="1840" y="670" />
              <mxPoint x="2177" y="670" />
            </Array>
            <mxPoint x="1840" y="619.9" as="sourcePoint" />
            <mxPoint x="2177" y="630" as="targetPoint" />
          </mxGeometry>
        </mxCell>
        <mxCell id="MYHYwygQS-LLH2HQ3Vkv-34" value="Rented Owner feedback" style="edgeStyle=orthogonalEdgeStyle;rounded=0;orthogonalLoop=1;jettySize=auto;html=1;exitX=0.5;exitY=1;exitDx=0;exitDy=0;" edge="1" parent="1" source="MYHYwygQS-LLH2HQ3Vkv-29">
          <mxGeometry relative="1" as="geometry">
            <Array as="points">
              <mxPoint x="1800" y="690" />
              <mxPoint x="2190" y="690" />
            </Array>
            <mxPoint x="2190" y="640" as="targetPoint" />
          </mxGeometry>
        </mxCell>
        <mxCell id="MYHYwygQS-LLH2HQ3Vkv-36" value="Sharing space" style="edgeStyle=orthogonalEdgeStyle;rounded=0;orthogonalLoop=1;jettySize=auto;html=1;entryX=0.064;entryY=0.256;entryDx=0;entryDy=0;entryPerimeter=0;" edge="1" parent="1" source="MYHYwygQS-LLH2HQ3Vkv-29" target="MYHYwygQS-LLH2HQ3Vkv-1">
          <mxGeometry x="-0.0012" relative="1" as="geometry">
            <Array as="points">
              <mxPoint x="1810" y="500" />
              <mxPoint x="2170" y="500" />
              <mxPoint x="2170" y="520" />
              <mxPoint x="2170" y="520" />
            </Array>
            <mxPoint as="offset" />
            <mxPoint x="2170" y="550" as="targetPoint" />
          </mxGeometry>
        </mxCell>
        <mxCell id="MYHYwygQS-LLH2HQ3Vkv-42" style="edgeStyle=orthogonalEdgeStyle;rounded=0;orthogonalLoop=1;jettySize=auto;html=1;entryX=0.193;entryY=0.111;entryDx=0;entryDy=0;entryPerimeter=0;" edge="1" parent="1" source="MYHYwygQS-LLH2HQ3Vkv-29" target="MYHYwygQS-LLH2HQ3Vkv-1">
          <mxGeometry relative="1" as="geometry">
            <Array as="points">
              <mxPoint x="1800" y="480" />
              <mxPoint x="2188" y="480" />
              <mxPoint x="2188" y="522" />
            </Array>
            <mxPoint x="2190" y="520" as="targetPoint" />
          </mxGeometry>
        </mxCell>
        <mxCell id="MYHYwygQS-LLH2HQ3Vkv-43" value="Booking&amp;nbsp;" style="edgeLabel;html=1;align=center;verticalAlign=middle;resizable=0;points=[];" connectable="0" vertex="1" parent="MYHYwygQS-LLH2HQ3Vkv-42">
          <mxGeometry x="-0.0643" y="2" relative="1" as="geometry">
            <mxPoint x="30" as="offset" />
          </mxGeometry>
        </mxCell>
        <mxCell id="MYHYwygQS-LLH2HQ3Vkv-29" value="&lt;b style=&quot;border-color: var(--border-color);&quot;&gt;User&amp;nbsp;&lt;/b&gt;" style="rounded=1;whiteSpace=wrap;html=1;fillColor=#ffe6cc;strokeColor=#d79b00;" vertex="1" parent="1">
          <mxGeometry x="1740" y="560" width="120" height="60" as="geometry" />
        </mxCell>
        <mxCell id="MYHYwygQS-LLH2HQ3Vkv-45" value="" style="endArrow=classic;startArrow=classic;html=1;rounded=0;exitX=1.014;exitY=0.826;exitDx=0;exitDy=0;exitPerimeter=0;entryX=0.036;entryY=0.701;entryDx=0;entryDy=0;entryPerimeter=0;" edge="1" parent="1" source="MYHYwygQS-LLH2HQ3Vkv-29" target="MYHYwygQS-LLH2HQ3Vkv-1">
          <mxGeometry width="50" height="50" relative="1" as="geometry">
            <mxPoint x="2060" y="600" as="sourcePoint" />
            <mxPoint x="2110" y="550" as="targetPoint" />
            <Array as="points">
              <mxPoint x="2010" y="610" />
            </Array>
          </mxGeometry>
        </mxCell>
        <mxCell id="MYHYwygQS-LLH2HQ3Vkv-46" value="Chat (message)" style="edgeLabel;html=1;align=center;verticalAlign=middle;resizable=0;points=[];" connectable="0" vertex="1" parent="MYHYwygQS-LLH2HQ3Vkv-45">
          <mxGeometry x="0.042" y="1" relative="1" as="geometry">
            <mxPoint as="offset" />
          </mxGeometry>
        </mxCell>
      </root>
    </mxGraphModel>
  </diagram>
</mxfile>
